<?xml version="1.0" standalone="no"?>
<!DOCTYPE svg PUBLIC "-//W3C//DTD SVG 20010904//EN"
 "http://www.w3.org/TR/2001/REC-SVG-20010904/DTD/svg10.dtd">
<svg version="1.0" xmlns="http://www.w3.org/2000/svg"
 width="500.000000pt" height="500.000000pt" viewBox="0 0 500.000000 500.000000"
 preserveAspectRatio="xMidYMid meet">
<metadata>
Created by potrace 1.11, written by Peter Selinger 2001-2013
</metadata>
<g transform="translate(0.000000,500.000000) scale(0.100000,-0.100000)"
fill="#000000" stroke="none">
<path d="M3117 4008 c-14 -13 -169 -177 -346 -365 -215 -230 -321 -350 -321
-364 0 -12 79 -204 175 -427 96 -223 173 -407 171 -409 -1 -2 -19 4 -39 12
-68 28 -112 13 -105 -37 3 -23 20 -34 153 -95 l60 -28 62 -144 c35 -79 63
-145 63 -147 0 -2 -25 -1 -55 2 -64 8 -85 -4 -85 -48 0 -33 5 -36 113 -57 l79
-16 35 -83 c28 -66 41 -84 61 -89 31 -7 56 7 60 35 2 12 -136 346 -307 742
-171 396 -311 725 -311 730 0 6 89 10 234 10 l234 0 468 -742 c257 -409 467
-748 467 -754 0 -6 -121 -158 -268 -337 l-269 -327 -616 0 -615 0 -558 582
c-306 321 -553 584 -548 586 7 2 676 -117 864 -154 31 -7 67 18 67 45 0 9 -78
153 -174 321 l-173 305 -34 0 c-27 0 -35 -5 -43 -27 -8 -23 7 -54 132 -274 77
-137 140 -249 139 -250 -1 -2 -214 37 -472 85 -259 48 -478 86 -488 83 -24 -6
-42 -45 -31 -65 5 -8 294 -313 642 -676 l634 -661 656 0 c361 0 662 4 668 8 6
4 145 169 308 367 188 229 296 368 296 382 0 12 -209 354 -465 760 l-465 738
407 5 c367 5 407 7 417 22 7 11 7 25 1 41 -14 35 -809 737 -834 737 -11 0 -31
-10 -44 -22z m398 -409 l297 -264 -295 -3 c-163 -1 -431 -1 -596 0 l-300 3
271 288 270 287 27 -23 c16 -13 162 -142 326 -288z"/>
<path d="M1568 2919 c-21 -12 -24 -59 -6 -77 19 -19 55 -14 72 9 16 23 12 47
-12 67 -19 14 -31 15 -54 1z"/>
<path d="M1746 2834 c-22 -21 -20 -47 4 -69 42 -38 98 12 70 64 -13 25 -52 28
-74 5z"/>
<path d="M1932 2758 c-30 -30 7 -95 47 -81 20 7 41 32 41 49 0 35 -62 58 -88
32z"/>
<path d="M2122 2684 c-27 -18 -28 -45 -4 -67 35 -32 82 -15 82 28 0 22 -28 55
-46 55 -5 0 -20 -7 -32 -16z"/>
<path d="M2302 2608 c-18 -18 -14 -53 9 -74 19 -17 23 -17 47 -3 32 17 39 50
17 73 -19 19 -56 21 -73 4z"/>
<path d="M2503 2540 c-41 -16 -41 -69 1 -88 18 -8 29 -7 45 5 44 30 4 102 -46
83z"/>
<path d="M2105 2127 c-18 -27 -12 -53 17 -68 27 -15 57 -2 64 28 14 55 -50 87
-81 40z"/>
<path d="M2305 2100 c-37 -41 17 -102 64 -73 26 16 26 59 -1 77 -29 21 -41 20
-63 -4z"/>
<path d="M2506 2064 c-30 -30 -9 -84 33 -84 21 0 51 30 51 52 0 19 -32 48 -53
48 -8 0 -23 -7 -31 -16z"/>
<path d="M2702 2028 c-7 -7 -12 -25 -12 -40 0 -21 6 -31 26 -38 47 -18 82 18
64 65 -7 19 -17 25 -38 25 -15 0 -33 -5 -40 -12z"/>
<path d="M3195 1604 c-22 -23 -15 -56 17 -73 24 -14 28 -14 47 3 23 21 27 56
9 74 -17 17 -54 15 -73 -4z"/>
<path d="M3275 1420 c-27 -29 -10 -74 28 -78 53 -6 77 46 39 81 -25 22 -45 21
-67 -3z"/>
<path d="M3359 1239 c-26 -26 -21 -59 13 -78 24 -14 28 -14 47 3 23 21 28 58
9 73 -28 22 -49 22 -69 2z"/>
</g>
</svg>
